# xmcd
#
# Track frame offsets: 
#        150
#        15680
#        28470
#        44654
#        62136
#        85938
#        103232
#        122592
#        137995
#        150106
#        171512
#        191432
#        209782
#
# Disc length: 2971 seconds
#
# Revision: 1
# Processed by: cddbd v1.5.2PL0 Copyright (c) Steve Scherf et al.
# Submitted via: ExactAudioCopyFreeDBPlugin 1.0
#
DISCID=c00b990d
DTITLE=Sugarland - Enjoy The Ride [Deluxe Edition]
DYEAR=2006
DGENRE=Country
TTITLE0=Settlin'
TTITLE1=County Line
TTITLE2=Want To
TTITLE3=Everyday America
TTITLE4=Happy Ending
TTITLE5=These Are The Days
TTITLE6=One Blue Sky
TTITLE7=April Showers
TTITLE8=Mean Girls
TTITLE9=Stay
TTITLE10=Sugarland
TTITLE11=12 Baby Girl (Clear Channel Stripped)
TTITLE12=13 Down In Mississippi (And Up To No Good) (Clear Channel Str
TTITLE12=ipped)
EXTD=
EXTT0=
EXTT1=
EXTT2=
EXTT3=
EXTT4=
EXTT5=
EXTT6=
EXTT7=
EXTT8=
EXTT9=
EXTT10=
EXTT11=
EXTT12=
PLAYORDER=
